<svg xmlns="http://www.w3.org/2000/svg" viewBox="0 0 720 300" role="img" aria-labelledby="skF08-title" style="font-family:var(--serif,'Newsreader',Georgia,serif);background:#0b0c10"><style>@import url('https://fonts.googleapis.com/css2?family=Fraunces:ital,opsz,wght@0,9..144,400;0,9..144,600;0,9..144,700&amp;family=Instrument+Serif:ital@0;1&amp;family=JetBrains+Mono:wght@400;500&amp;family=Newsreader:ital,opsz,wght@0,6..72,400;0,6..72,500;1,6..72,400&amp;display=swap');</style>
  <title id="skF08-title">One evidence card is described from five perspectives - design intent, geometry traits, materials and specs, project context, search terms - which together form the knowledge card stored in the semantic space</title>
  <defs>
    <marker id="skF08-arrow" viewBox="0 0 10 10" refX="9" refY="5" markerWidth="7" markerHeight="7" orient="auto">
      <path d="M0,1 L9,5 L0,9 Z" style="fill:var(--accent,#c08bd2)"/>
    </marker>
  </defs>

  <!-- fan out / fan in -->
  <g style="fill:none;stroke:var(--rule-bold,rgba(243,238,227,0.42));stroke-width:1.5">
    <path d="M156,126 C182,126 178,42 204,42"/>
    <path d="M156,126 C182,126 178,84 204,84"/>
    <path d="M156,126 H204"/>
    <path d="M156,126 C182,126 178,168 204,168"/>
    <path d="M156,126 C182,126 178,210 204,210"/>
    <path d="M390,42 C416,42 412,126 438,126"/>
    <path d="M390,84 C416,84 412,126 438,126"/>
    <path d="M390,126 H438"/>
    <path d="M390,168 C416,168 412,126 438,126"/>
    <path d="M390,210 C416,210 412,126 438,126"/>
  </g>

  <!-- ONE CARD -->
  <rect x="24" y="74" width="132" height="104" rx="10" style="fill:var(--paper-2,#12131a);stroke:var(--accent,#c08bd2);stroke-width:1.5"/>
  <text x="38" y="98" style="font-family:var(--mono,'JetBrains Mono',ui-monospace,monospace);font-size:11.5px;fill:var(--accent,#c08bd2)">A1234-XX-001</text>
  <g style="font-family:var(--display,'Fraunces',serif);font-weight:600;font-size:13px;fill:var(--ink,#f3eee3)">
    <text x="38" y="118">File node’s</text>
    <text x="38" y="134">data</text>
  </g>
  <line x1="38" y1="146" x2="142" y2="146" style="stroke:var(--rule,rgba(243,238,227,0.14));stroke-width:1"/>
  <text x="38" y="162" style="font-family:var(--mono,'JetBrains Mono',ui-monospace,monospace);font-size:10.5px;fill:var(--ash,rgba(243,238,227,0.55))">unstructured</text>

  <!-- FIVE PERSPECTIVES -->
  <g style="fill:var(--paper-2,#12131a);stroke:var(--rule,rgba(243,238,227,0.14));stroke-width:1">
    <rect x="204" y="24" width="186" height="36" rx="8"/>
    <rect x="204" y="66" width="186" height="36" rx="8"/>
    <rect x="204" y="108" width="186" height="36" rx="8"/>
    <rect x="204" y="150" width="186" height="36" rx="8"/>
    <rect x="204" y="192" width="186" height="36" rx="8"/>
  </g>
  <g style="font-family:var(--display,'Fraunces',serif);font-weight:600;font-size:12.5px;fill:var(--ink,#f3eee3)">
    <text x="216" y="40">Design intent</text>
    <text x="216" y="82">Geometry traits</text>
    <text x="216" y="124">Materials &amp; specs</text>
    <text x="216" y="166">Project context</text>
    <text x="216" y="208">Search terms</text>
  </g>
  <g style="font-family:var(--mono,'JetBrains Mono',ui-monospace,monospace);font-size:10px;fill:var(--ash,rgba(243,238,227,0.55))">
    <text x="216" y="53">what problem it solved</text>
    <text x="216" y="95">form &#183; construction</text>
    <text x="216" y="137">alloys &#183; finishes</text>
    <text x="216" y="179">venue &#183; siblings</text>
    <text x="216" y="221">shop vocabulary</text>
  </g>

  <!-- STRUCTURED CARD -->
  <rect x="438" y="82" width="112" height="88" rx="10" style="fill:var(--paper-2,#12131a);stroke:var(--rule,rgba(243,238,227,0.14));stroke-width:1"/>
  <text x="452" y="104" style="font-family:var(--mono,'JetBrains Mono',ui-monospace,monospace);font-size:11.5px;fill:var(--accent,#c08bd2)">A1234-XX-001</text>
  <g style="font-family:var(--mono,'JetBrains Mono',ui-monospace,monospace);font-size:10px;fill:var(--ink-2,#c5c1b8)">
    <text x="452" y="124">type: assembly</text>
    <text x="452" y="138">dims: 2440&#215;610</text>
    <text x="452" y="152">mat:  AL 5052</text>
  </g>
  <path d="M550,126 H568" style="stroke:var(--accent,#c08bd2);stroke-width:2;fill:none" marker-end="url(#skF08-arrow)"/>

  <!-- SEMANTIC SPACE -->
  <rect x="576" y="76" width="120" height="100" rx="10" style="fill:var(--paper-2,#12131a);stroke:var(--rule,rgba(243,238,227,0.14));stroke-width:1"/>
  <g style="fill:var(--ash,rgba(243,238,227,0.55))">
    <circle cx="600" cy="102" r="2"/>
    <circle cx="624" cy="96" r="2"/>
    <circle cx="606" cy="122" r="2"/>
    <circle cx="626" cy="118" r="2"/>
    <circle cx="590" cy="112" r="2"/>
    <circle cx="656" cy="126" r="2"/>
    <circle cx="668" cy="132" r="2"/>
    <circle cx="660" cy="142" r="2"/>
    <circle cx="674" cy="120" r="2"/>
    <circle cx="586" cy="140" r="2"/>
    <circle cx="682" cy="100" r="2"/>
  </g>
  <circle cx="613" cy="110" r="8" style="fill:none;stroke:var(--accent,#c08bd2);stroke-width:1"/>
  <circle cx="613" cy="110" r="3" style="fill:var(--accent,#c08bd2)"/>
  <text x="636" y="166" text-anchor="middle" style="font-family:var(--mono,'JetBrains Mono',ui-monospace,monospace);font-size:10px;letter-spacing:.04em;text-transform:uppercase;fill:var(--ink-2,#c5c1b8)">SEMANTIC SPACE</text>

  <!-- zone labels -->
  <g text-anchor="middle" style="font-family:var(--mono,'JetBrains Mono',ui-monospace,monospace);font-size:10.5px;letter-spacing:.14em;text-transform:uppercase;fill:var(--ash,rgba(243,238,227,0.55))">
    <text x="90" y="252">EVIDENCE CARD</text>
    <text x="297" y="252">FIVE PERSPECTIVES</text>
    <text x="494" y="252">KNOWLEDGE CARD</text>
    <text x="636" y="252">ALL SEARCHABLE</text>
  </g>
</svg>