<svg xmlns="http://www.w3.org/2000/svg" width="1200" height="620" viewBox="0 0 1200 620">
<rect x="0" y="0" width="100%" height="100%" fill="white"/>
<defs><filter id="shadow" x="-20%" y="-20%" width="140%" height="140%"><feDropShadow dx="0" dy="2" stdDeviation="2" flood-color="#000" flood-opacity="0.10"/></filter></defs>
<text x="600.0" y="72" text-anchor="middle" font-family="system-ui" font-size="40" fill="#111">Retrieval sources</text>
<text x="600.0" y="108" text-anchor="middle" font-family="system-ui" font-size="18" fill="#444">Turn any source on/off per question — results are merged, deduped, and reranked</text>
<rect x="80.0" y="170" width="320" height="340" rx="20" fill="#fff" stroke="#222" stroke-width="2" filter="url(#shadow)"/>
<rect x="98.0" y="188" width="284" height="46" rx="14" fill="#7A4999" opacity="0.08" stroke="#7A4999" stroke-width="1.2"/>
<text x="116.0" y="218" font-family="system-ui" font-size="18" fill="#111">Local RAG</text>
<text x="116.0" y="274" font-family="system-ui" font-size="14" fill="#222">Chroma DB</text>
<text x="116.0" y="296" font-family="system-ui" font-size="14" fill="#222">(ADA • ABA • GSA P-100)</text>
<text x="116.0" y="340" font-family="system-ui" font-size="13" fill="#555">Embeddings + MMR</text>
<text x="116.0" y="362" font-family="system-ui" font-size="13" fill="#555">diversity retrieval</text>
<rect x="116.0" y="440" width="248" height="34" rx="17" fill="#7A4999" opacity="0.10" stroke="#7A4999" stroke-width="1.2"/>
<text x="240.0" y="463" text-anchor="middle" font-family="system-ui" font-size="12.5" fill="#333">Key: OPENAI_EMBED_MODEL</text>
<rect x="440.0" y="170" width="320" height="340" rx="20" fill="#fff" stroke="#222" stroke-width="2" filter="url(#shadow)"/>
<rect x="458.0" y="188" width="284" height="46" rx="14" fill="#7A4999" opacity="0.08" stroke="#7A4999" stroke-width="1.2"/>
<text x="476.0" y="218" font-family="system-ui" font-size="18" fill="#111">Upload PDF</text>
<text x="476.0" y="274" font-family="system-ui" font-size="14" fill="#222">OpenAI Vector Store</text>
<text x="476.0" y="296" font-family="system-ui" font-size="14" fill="#222">(session indexing)</text>
<text x="476.0" y="340" font-family="system-ui" font-size="13" fill="#555">Per-session file retrieval</text>
<text x="476.0" y="362" font-family="system-ui" font-size="13" fill="#555">via file_search tool</text>
<rect x="476.0" y="440" width="248" height="34" rx="17" fill="#7A4999" opacity="0.10" stroke="#7A4999" stroke-width="1.2"/>
<text x="600.0" y="463" text-anchor="middle" font-family="system-ui" font-size="12.5" fill="#333">Key: vector_store_id</text>
<rect x="800.0" y="170" width="320" height="340" rx="20" fill="#fff" stroke="#222" stroke-width="2" filter="url(#shadow)"/>
<rect x="818.0" y="188" width="284" height="46" rx="14" fill="#7A4999" opacity="0.08" stroke="#7A4999" stroke-width="1.2"/>
<text x="836.0" y="218" font-family="system-ui" font-size="18" fill="#111">Web Search</text>
<text x="836.0" y="274" font-family="system-ui" font-size="14" fill="#222">Google Custom Search</text>
<text x="836.0" y="296" font-family="system-ui" font-size="14" fill="#222">(snippets + links)</text>
<text x="836.0" y="340" font-family="system-ui" font-size="13" fill="#555">Optional constraints</text>
<text x="836.0" y="362" font-family="system-ui" font-size="13" fill="#555">(allowed domains)</text>
<rect x="836.0" y="440" width="248" height="34" rx="17" fill="#7A4999" opacity="0.10" stroke="#7A4999" stroke-width="1.2"/>
<text x="960.0" y="463" text-anchor="middle" font-family="system-ui" font-size="12.5" fill="#333">Key: G_API_KEY / CX</text>
</svg>